name C:\Users\r0593348\3dpredictsim\Results\Batchsim_tmt_linear_v2\Pog_s1_tmt_bCst_d02_k250_ig24.mot
datacolumns 128
datarows 4
range 1.62402296 1.65650342
endheader
time	pelvis_tilt	pelvis_list	pelvis_rotation	pelvis_tx	pelvis_ty	pelvis_tz	hip_flexion_l	hip_adduction_l	hip_rotation_l	hip_flexion_r	hip_adduction_r	hip_rotation_r	knee_angle_l	knee_angle_r	ankle_angle_l	ankle_angle_r	subtalar_angle_l	subtalar_angle_r	tmt_angle_l	tmt_angle_r	mtp_angle_l	mtp_angle_r	lumbar_extension	lumbar_bending	lumbar_rotation	arm_flex_l	arm_add_l	arm_rot_l	arm_flex_r	arm_add_r	arm_rot_r	elbow_flex_l	elbow_flex_r	pro_sup_l	pro_sup_r	glut_med1_l/activation	glut_med2_l/activation	glut_med3_l/activation	glut_min1_l/activation	glut_min2_l/activation	glut_min3_l/activation	semimem_l/activation	semiten_l/activation	bifemlh_l/activation	bifemsh_l/activation	sar_l/activation	add_long_l/activation	add_brev_l/activation	add_mag1_l/activation	add_mag2_l/activation	add_mag3_l/activation	tfl_l/activation	pect_l/activation	grac_l/activation	glut_max1_l/activation	glut_max2_l/activation	glut_max3_l/activation	iliacus_l/activation	psoas_l/activation	quad_fem_l/activation	gem_l/activation	peri_l/activation	rect_fem_l/activation	vas_med_l/activation	vas_int_l/activation	vas_lat_l/activation	med_gas_l/activation	lat_gas_l/activation	soleus_l/activation	tib_post_l/activation	flex_dig_l/activation	flex_hal_l/activation	tib_ant_l/activation	per_brev_l/activation	per_long_l/activation	per_tert_l/activation	ext_dig_l/activation	ext_hal_l/activation	ercspn_l/activation	intobl_l/activation	extobl_l/activation	glut_med1_r/activation	glut_med2_r/activation	glut_med3_r/activation	glut_min1_r/activation	glut_min2_r/activation	glut_min3_r/activation	semimem_r/activation	semiten_r/activation	bifemlh_r/activation	bifemsh_r/activation	sar_r/activation	add_long_r/activation	add_brev_r/activation	add_mag1_r/activation	add_mag2_r/activation	add_mag3_r/activation	tfl_r/activation	pect_r/activation	grac_r/activation	glut_max1_r/activation	glut_max2_r/activation	glut_max3_r/activation	iliacus_r/activation	psoas_r/activation	quad_fem_r/activation	gem_r/activation	peri_r/activation	rect_fem_r/activation	vas_med_r/activation	vas_int_r/activation	vas_lat_r/activation	med_gas_r/activation	lat_gas_r/activation	soleus_r/activation	tib_post_r/activation	flex_dig_r/activation	flex_hal_r/activation	tib_ant_r/activation	per_brev_r/activation	per_long_r/activation	per_tert_r/activation	ext_dig_r/activation	ext_hal_r/activation	ercspn_r/activation	intobl_r/activation	extobl_r/activation	
          1.62402296	         -2.48690812	         -1.00590764	         -5.24893738	          2.03002870	          0.87149791	          0.00305360	         26.00138859	         -0.45608075	         -2.82898747	        -17.92158282	          1.44238762	          5.80454320	         -6.29913362	         -6.91064926	          6.98339096	         -9.57478602	          4.50850457	          9.04298667	          0.13034999	          4.08198697	         -0.06667803	         25.59687745	          0.19091797	          2.98045675	          1.61613072	         -9.35386486	        -13.45314408	         14.20305874	          3.54094487	        -13.47746045	         11.77124363	         16.47635802	         27.00449399	         86.51662706	         86.51662706	          0.05035753	          0.05902213	          0.06825386	          0.05902236	          0.05902233	          0.05003352	          0.12259052	          0.08715248	          0.12302878	          0.06660036	          0.05001037	          0.11460428	          0.07228919	          0.33390183	          0.18133561	          0.10110349	          0.05000008	          0.07785295	          0.13528843	          0.05000096	          0.06832252	          0.21391248	          0.05902258	          0.05000352	          0.05330346	          0.30020785	          0.18101169	          0.08224372	          0.09963239	          0.13532359	          0.07409871	          0.07118465	          0.07276605	          0.07137015	          0.05000007	          0.05000023	          0.05000032	          0.52522950	          0.20687973	          0.18696153	          0.21166275	          0.52863789	          0.34246345	          0.05000007	          0.13263401	          0.11460475	          0.22982756	          0.08224460	          0.06795469	          0.20131044	          0.14354367	          0.08224768	          0.05000069	          0.05000013	          0.05000009	          0.05000036	          0.07768904	          0.13029029	          0.10035956	          0.05000247	          0.05000286	          0.05000041	          0.22069120	          0.09420543	          0.05000649	          0.05000084	          0.05000052	          0.05000058	          0.35100771	          0.58452790	          0.05000024	          0.05000051	          0.06042018	          0.28589025	          0.05031859	          0.11938082	          0.08587006	          0.16416627	          0.23662040	          0.19462394	          0.18638209	          0.19228775	          0.23693925	          0.05000001	          0.07734546	          0.13478618	          0.05000014	          0.05000002	          0.05000009	          0.05020565	          0.05000004	          0.07939658	
          1.63484978	         -2.46799467	         -1.04840866	         -5.37406889	          2.04713515	          0.87036038	          0.00293305	         25.46051810	         -0.23667234	         -2.56469763	        -17.63351364	          1.31058177	          5.55896425	         -6.95997239	         -9.21455419	          6.20407711	        -10.20471304	          4.11947956	         10.07307709	          0.06200472	          3.67917306	         -0.06616630	         26.38295308	          0.41954385	          2.77972023	          1.66450951	        -10.55119980	        -13.45077244	         14.01902662	          3.27876506	        -13.50618475	         12.05739838	         16.56078234	         27.81125877	         86.51662706	         86.51662706	          0.05000001	          0.05000005	          0.11958132	          0.05000005	          0.05000006	          0.05000010	          0.10385095	          0.07383011	          0.10422222	          0.05641964	          0.05000037	          0.09708608	          0.19924106	          0.29720594	          0.24138259	          0.12164464	          0.05902263	          0.08224505	          0.11460827	          0.05733022	          0.10689947	          0.18121328	          0.05000028	          0.06967254	          0.31264897	          0.25431714	          0.15334171	          0.06967290	          0.20977687	          0.23436460	          0.16963511	          0.06030323	          0.06194110	          0.06046031	          0.05902209	          0.06967299	          0.06967250	          0.47315453	          0.20324322	          0.21613455	          0.29217968	          0.48396043	          0.29011343	          0.05000000	          0.11235914	          0.09708590	          0.19469541	          0.06967246	          0.05902238	          0.17053755	          0.12160118	          0.06967509	          0.05000377	          0.05000037	          0.05000113	          0.05000005	          0.06581335	          0.19508832	          0.26882673	          0.18216024	          0.05903887	          0.13242733	          0.18695569	          0.07980512	          0.05000088	          0.05902334	          0.05902354	          0.05902463	          0.29735155	          0.49517538	          0.05902243	          0.05902249	          0.05118439	          0.24218814	          0.13528408	          0.13528431	          0.10498974	          0.13907128	          0.20044986	          0.16487309	          0.15789116	          0.16289420	          0.20072005	          0.05000027	          0.06552224	          0.11418284	          0.05000014	          0.05463836	          0.05000077	          0.05828228	          0.08100076	          0.07873861	
          1.64567660	         -2.44275599	         -1.06905704	         -5.47076401	          2.06442544	          0.86902529	          0.00283137	         24.77298774	         -0.09849536	         -2.28652715	        -17.24574484	          1.17158207	          5.29863955	         -7.73566934	        -11.69926752	          5.59975183	        -10.71945756	          3.70168844	         11.05977266	         -0.13980867	          3.09982231	         -0.17756337	         26.72680043	          0.65789768	          2.54477985	          1.70221385	        -11.73904178	        -13.46497697	         13.90112627	          2.96044786	        -13.53779476	         12.29709231	         16.63118292	         28.61552126	         86.51662706	         86.51662706	          0.24221671	          0.26335655	          0.34696997	          0.43526420	          0.26644210	          0.25550741	          0.09125872	          0.08712912	          0.09568766	          0.08224528	          0.05902307	          0.08224522	          0.16878446	          0.25177414	          0.20448424	          0.13055906	          0.05000048	          0.06967325	          0.09708909	          0.05000037	          0.13646271	          0.17514375	          0.05902186	          0.05902224	          0.26485647	          0.21544152	          0.27954707	          0.05902249	          0.17770975	          0.19853891	          0.14370418	          0.05108514	          0.05247271	          0.05121818	          0.05000015	          0.05902271	          0.05902242	          0.55246874	          0.29392321	          0.18309587	          0.45984385	          0.57661638	          0.35134620	          0.05296091	          0.09708578	          0.08224504	          0.22410994	          0.05902213	          0.05000004	          0.23643532	          0.10301293	          0.05902438	          0.05000119	          0.05000011	          0.05000008	          0.05000028	          0.07545743	          0.16526670	          0.22773320	          0.15431475	          0.05001448	          0.11218420	          0.15837717	          0.11242835	          0.05000032	          0.05000126	          0.05000124	          0.05000212	          0.25189750	          0.46355335	          0.05000011	          0.05000026	          0.05000006	          0.20516647	          0.11460414	          0.11460433	          0.08894069	          0.11781240	          0.16980846	          0.13967006	          0.13375544	          0.13799381	          0.17003742	          0.05000017	          0.12568077	          0.13329449	          0.10837393	          0.19244524	          0.13238682	          0.06212539	          0.06861872	          0.06670238	
          1.65650342	         -2.41421827	         -1.08100114	         -5.53967056	          2.08166036	          0.86751599	          0.00270334	         24.00693410	          0.02883772	         -2.00686514	        -16.76072891	          1.03450374	          5.02261080	         -8.42231444	        -14.33129471	          5.10116753	        -11.03484467	          3.25657290	         11.97286500	         -0.03022811	          2.38579287	         -0.18410017	         26.32976109	          0.88303806	          2.29674074	          1.72997064	        -12.86771552	        -13.48562338	         13.86548563	          2.63410697	        -13.57977674	         12.52133089	         16.65743507	         29.38686060	         86.51662706	         86.51662706	          0.34979700	          0.37672575	          0.40936729	          0.36872967	          0.30498161	          0.33521610	          0.07730867	          0.08224189	          0.08106063	          0.06967308	          0.05000089	          0.06967299	          0.14298356	          0.21328723	          0.19019195	          0.16370373	          0.05000037	          0.05902320	          0.08224796	          0.22940072	          0.19589234	          0.19079830	          0.05000012	          0.05000014	          0.22436968	          0.18250850	          0.23681567	          0.05000015	          0.15054477	          0.16819013	          0.12173736	          0.05000002	          0.05000005	          0.05000000	          0.05000001	          0.05000043	          0.05000022	          0.62093321	          0.24899341	          0.15846432	          0.68627909	          0.61253775	          0.45233380	          0.06211218	          0.08224494	          0.06967280	          0.18985180	          0.05000037	          0.05000030	          0.20029312	          0.08726613	          0.05000217	          0.06132701	          0.05902220	          0.05902477	          0.05000068	          0.06392308	          0.18309256	          0.28169154	          0.14538568	          0.05003324	          0.09503673	          0.13416721	          0.09524277	          0.05904009	          0.05000368	          0.05000241	          0.05000255	          0.21339165	          0.39581565	          0.05000076	          0.05000365	          0.05000200	          0.17380406	          0.09708540	          0.09708556	          0.07534495	          0.09980323	          0.14385103	          0.11831965	          0.11330924	          0.11689987	          0.14404513	          0.09292269	          0.10647068	          0.11679427	          0.09290890	          0.21427306	          0.11215202	          0.08388674	          0.05812945	          0.05650605	
